<svg width="240" height="340" viewBox="0 0 240 340" fill="none" xmlns="http://www.w3.org/2000/svg">
  <!-- Outer Glow -->
  <rect x="2" y="2" width="236" height="336" rx="16" stroke="url(#legendary_outer_glow)" stroke-width="4" stroke-opacity="0.3"/>
  
  <!-- Main Frame Border -->
  <rect x="5" y="5" width="230" height="330" rx="14" stroke="url(#legendary_gold_grad)" stroke-width="1.5"/>
  <rect x="10" y="10" width="220" height="320" rx="10" stroke="url(#legendary_gold_grad)" stroke-width="0.75" stroke-opacity="0.6"/>
  
  <!-- Corner Ornaments (Top Left) -->
  <path d="M5 25V15C5 9.47715 9.47715 5 15 5H25" stroke="url(#legendary_gold_grad)" stroke-width="2.5" stroke-linecap="round"/>
  <path d="M12 12C12 12 12 18 18 18" stroke="url(#legendary_gold_grad)" stroke-width="1.5" stroke-linecap="round"/>
  <circle cx="20" cy="20" r="3" fill="url(#legendary_gold_grad)"/>
  
  <!-- Corner Ornaments (Top Right) -->
  <path d="M215 5H225C230.523 5 235 9.47715 235 15V25" stroke="url(#legendary_gold_grad)" stroke-width="2.5" stroke-linecap="round"/>
  <path d="M228 12C228 12 228 18 222 18" stroke="url(#legendary_gold_grad)" stroke-width="1.5" stroke-linecap="round"/>
  <circle cx="220" cy="20" r="3" fill="url(#legendary_gold_grad)"/>
  
  <!-- Corner Ornaments (Bottom Left) -->
  <path d="M5 315V325C5 330.523 9.47715 335 15 335H25" stroke="url(#legendary_gold_grad)" stroke-width="2.5" stroke-linecap="round"/>
  <path d="M12 328C12 328 12 322 18 322" stroke="url(#legendary_gold_grad)" stroke-width="1.5" stroke-linecap="round"/>
  <circle cx="20" cy="320" r="3" fill="url(#legendary_gold_grad)"/>
  
  <!-- Corner Ornaments (Bottom Right) -->
  <path d="M215 335H225C230.523 335 235 330.523 235 325V315" stroke="url(#legendary_gold_grad)" stroke-width="2.5" stroke-linecap="round"/>
  <path d="M228 328C228 328 228 322 222 322" stroke="url(#legendary_gold_grad)" stroke-width="1.5" stroke-linecap="round"/>
  <circle cx="220" cy="320" r="3" fill="url(#legendary_gold_grad)"/>
  
  <!-- Decorative Mid-points -->
  <path d="M110 5L120 12L130 5" stroke="url(#legendary_gold_grad)" stroke-width="1.5" stroke-linecap="round"/>
  <path d="M110 335L120 328L130 335" stroke="url(#legendary_gold_grad)" stroke-width="1.5" stroke-linecap="round"/>

  <defs>
    <linearGradient id="legendary_gold_grad" x1="0" y1="0" x2="240" y2="340" gradientUnits="userSpaceOnUse">
      <stop offset="0%" stop-color="#f1c40f"/>
      <stop offset="25%" stop-color="#ffffff"/>
      <stop offset="50%" stop-color="#ffb347"/>
      <stop offset="75%" stop-color="#f1c40f"/>
      <stop offset="100%" stop-color="#ffb347"/>
    </linearGradient>
    <radialGradient id="legendary_outer_glow" cx="120" cy="170" r="180" gradientUnits="userSpaceOnUse">
      <stop offset="0%" stop-color="#f1c40f" stop-opacity="0.8"/>
      <stop offset="100%" stop-color="#f1c40f" stop-opacity="0"/>
    </radialGradient>
  </defs>
</svg>
