<svg version="1.1" id="Layer_1" xmlns="http://www.w3.org/2000/svg" xmlns:xlink="http://www.w3.org/1999/xlink" x="0px" y="0px"
	 width="100%" viewBox="0 0 1024 544" enable-background="new 0 0 1024 544" xml:space="preserve">
<path fill="#000000" opacity="1.000000" stroke="none" 
	d="
M237.616180,480.490173 
	C217.641235,468.256805 207.637436,441.293732 214.861877,419.587280 
	C216.858475,413.588379 219.066513,407.637421 222.987747,402.536407 
	C225.272873,399.563751 224.893326,397.459229 221.683716,395.128540 
	C217.239075,391.901123 217.350769,388.159912 221.405670,384.241333 
	C222.601395,383.085815 223.887817,382.013641 225.203369,380.994537 
	C229.535461,377.638367 232.803024,378.201752 235.105331,383.292633 
	C236.913391,387.290680 239.075668,388.100037 242.861710,386.064209 
	C245.784027,384.492859 248.881042,383.239166 252.178009,382.532562 
	C253.817230,382.181274 255.378128,381.467590 255.967209,379.643066 
	C256.683929,377.423218 254.800262,376.836273 253.556107,375.824585 
	C250.183701,373.082397 249.399780,369.460785 250.501144,365.479797 
	C251.593979,361.529633 254.635925,360.103973 258.522339,360.088837 
	C263.352844,360.070007 268.183441,359.970825 273.013519,359.996948 
	C276.770508,360.017242 279.829224,361.218414 281.382019,365.060333 
	C283.050415,369.188293 281.748749,372.539581 278.942688,375.554962 
	C275.070007,379.716461 275.451813,380.937592 280.977478,382.783936 
	C283.488312,383.622955 286.116211,384.486176 288.263855,385.960602 
	C292.900696,389.144043 296.150482,388.104584 299.688721,383.989899 
	C309.078186,373.070557 319.743958,363.268982 332.033234,355.923065 
	C342.024475,349.950836 341.612335,340.016083 344.517120,331.208405 
	C345.076935,329.510895 344.006226,327.600830 342.972046,326.067261 
	C342.034943,324.677612 340.891754,323.303925 338.916229,323.778168 
	C336.980377,324.242889 336.528656,325.799133 336.310699,327.583893 
	C335.383484,335.177673 331.631653,341.394806 326.507263,346.829987 
	C318.680847,355.131134 307.024811,356.047974 300.298279,349.022491 
	C293.291779,341.704651 294.067261,330.400635 302.764130,322.859039 
	C310.727905,315.953125 319.252472,309.690918 330.810181,310.802307 
	C331.610016,310.879242 332.452332,310.568542 333.268951,310.407867 
	C346.856934,307.733887 356.997437,315.904755 357.324982,329.807495 
	C357.360291,331.306396 357.375641,332.809479 357.306854,334.306335 
	C357.118408,338.406921 358.895294,339.522430 362.506195,337.720673 
	C373.106171,332.431488 384.077942,328.032104 395.300049,324.290192 
	C399.551697,322.872467 400.899170,320.202179 400.688354,315.988403 
	C400.535278,312.928345 399.790314,310.073578 398.791595,307.251617 
	C396.569214,300.972015 395.088837,300.317383 388.435577,300.791840 
	C378.614929,301.492126 370.333252,298.189453 364.732208,289.824463 
	C361.778656,285.413422 359.509369,280.548035 356.849213,275.934998 
	C355.524475,273.637695 356.117126,272.142578 358.490631,271.262726 
	C376.288025,264.665558 397.230988,270.186218 398.386108,292.100342 
	C398.466797,293.630676 398.702423,295.097900 400.949249,296.176453 
	C403.287537,292.372253 405.558014,288.307129 403.425720,283.956055 
	C396.540222,269.905884 402.757996,251.159683 422.573364,244.307480 
	C427.462494,242.616837 432.530060,241.642563 437.646912,240.942123 
	C441.093323,240.470322 442.593658,241.759323 442.101105,245.448044 
	C441.353363,251.047852 440.808533,256.679901 440.351654,262.312378 
	C439.272552,275.616974 430.713898,285.656555 417.626251,288.807892 
	C408.758789,290.943085 407.159515,292.701385 406.447693,302.162262 
	C406.136047,306.304596 406.354187,310.490143 406.402252,314.655243 
	C406.450348,318.818054 408.585632,320.415405 412.583771,319.335419 
	C422.397217,316.684570 432.345490,314.706451 442.410034,313.325073 
	C461.082581,310.762299 479.831329,309.390686 498.680206,310.418243 
	C506.751556,310.858276 508.034302,309.882080 508.004944,301.735260 
	C507.997162,299.571503 508.023285,297.384888 507.735443,295.248993 
	C506.695007,287.529541 503.349457,285.040588 495.870911,286.324493 
	C485.634094,288.082001 477.675842,284.420715 471.456299,276.319672 
	C467.761871,271.507660 465.600677,265.872772 462.706970,260.632080 
	C461.179108,257.864990 462.904663,256.489258 465.123077,255.752762 
	C481.302643,250.381454 502.419159,253.542389 505.399139,275.200775 
	C505.490021,275.861450 505.662170,276.522278 507.535187,276.968231 
	C507.925171,270.363373 508.532990,263.939941 507.300110,257.510223 
	C506.942108,255.643097 504.778229,255.010071 503.180634,254.111877 
	C490.408905,246.931305 484.771057,233.371155 488.588684,219.267441 
	C490.770569,211.206787 493.906158,203.503281 497.073151,195.802994 
	C498.344177,192.712692 500.068207,190.961304 503.507629,193.044968 
	C505.785797,194.425156 507.176666,192.934891 508.687439,191.520721 
	C514.495544,186.084137 514.568909,186.045135 520.490356,191.633133 
	C522.268555,193.311218 523.850952,194.188583 526.192810,192.842270 
	C528.168762,191.706360 530.270691,191.635101 531.200806,194.077957 
	C535.508362,205.390762 541.101685,216.367111 541.299133,228.850098 
	C541.480591,240.319244 535.918640,248.628128 526.140747,253.967484 
	C522.523132,255.942917 520.899780,258.194641 521.176331,262.170227 
	C521.537598,267.363464 520.560669,272.639191 521.758667,277.976776 
	C523.967529,277.034546 523.482056,275.338562 523.702576,273.967987 
	C525.461365,263.034851 532.190735,255.834076 543.161804,254.072800 
	C549.581360,253.042236 556.109985,253.237915 562.449890,255.262314 
	C566.210999,256.463257 567.786743,258.227478 565.375793,262.201996 
	C562.535828,266.883820 560.802490,272.177551 557.430176,276.604004 
	C551.183838,284.803070 543.067932,288.128235 532.911804,286.304413 
	C525.945190,285.053345 524.233704,285.992889 521.951660,292.669159 
	C521.578369,293.761139 521.205017,294.924347 521.193970,296.058167 
	C521.041016,311.738953 519.770264,310.760284 533.998230,310.069061 
	C562.042297,308.706665 589.673523,305.183167 616.457031,296.459686 
	C620.014587,295.300995 625.249329,295.341064 625.486145,290.054565 
	C625.806763,282.899231 627.499390,275.212585 620.905945,269.488403 
	C619.290405,268.085876 617.608337,268.369690 615.748962,268.808716 
	C602.568726,271.920593 591.544189,267.525940 584.331360,256.320740 
	C580.545776,250.439819 578.399963,243.641724 574.039673,238.061447 
	C572.529541,236.128815 573.548218,234.582825 575.629395,233.804626 
	C586.096985,229.890594 596.780640,228.782166 607.306519,233.044861 
	C615.463867,236.348358 620.899658,242.484329 622.764587,251.378311 
	C623.233459,253.614075 623.825195,255.824051 624.654236,258.016785 
	C626.365356,248.086075 626.086304,238.090317 625.379089,228.181259 
	C624.960571,222.317032 622.054932,221.383224 617.131958,224.490326 
	C614.619690,226.075912 611.959412,227.197006 609.189270,225.501953 
	C606.504944,223.859360 605.613281,221.015762 606.099976,218.081985 
	C606.748596,214.171265 605.612061,212.827835 601.614502,213.642456 
	C598.299988,214.317856 595.097961,213.512802 593.350098,210.393204 
	C591.693054,207.435638 593.024536,204.596924 594.780823,202.005478 
	C596.064636,200.111115 597.313721,198.193115 598.623596,196.217224 
	C596.358276,193.648544 593.146973,194.026077 590.809509,192.500458 
	C588.231323,190.817703 585.694275,189.266953 585.723511,185.695404 
	C585.752380,182.165878 588.150452,180.499359 590.822510,178.903641 
	C593.324402,177.409515 597.489746,178.112579 598.361694,174.843643 
	C599.128723,171.968155 595.695129,170.141708 594.440857,167.644470 
	C590.891296,160.577484 593.032593,156.705826 600.949890,156.745758 
	C604.074158,156.761536 605.772522,156.291138 606.170349,152.593430 
	C607.079956,144.137222 611.202209,142.504944 618.311462,147.403488 
	C619.533508,148.245560 620.594482,149.382050 622.372620,149.297195 
	C624.626038,147.706802 624.904846,144.773499 626.530701,142.688599 
	C630.182251,138.006088 633.775513,138.004105 637.406921,142.700439 
	C639.024963,144.792892 639.415955,147.664764 641.683411,149.385513 
	C644.379700,149.096359 645.917053,146.807755 648.162659,145.782578 
	C653.274658,143.448776 656.775635,145.143845 657.276855,150.763016 
	C657.645081,154.891464 658.603882,157.132492 663.568237,156.704468 
	C670.231201,156.130020 672.991699,160.668121 670.112000,166.726166 
	C669.262817,168.512680 668.130554,170.221375 666.856079,171.737076 
	C664.244080,174.843475 665.507507,176.450867 668.785278,177.465546 
	C669.261169,177.612885 669.782471,177.631226 670.241028,177.813950 
	C673.987732,179.307007 678.102905,180.694672 678.280212,185.582520 
	C678.464050,190.648270 674.294617,192.021317 670.519897,193.445221 
	C664.854004,195.582474 664.831726,195.585251 668.290039,200.448502 
	C668.964539,201.396957 669.653259,202.353546 670.180359,203.385605 
	C673.124084,209.149307 670.645142,213.497330 664.140198,213.284363 
	C659.723511,213.139771 657.999695,214.196167 657.964172,219.030106 
	C657.913635,225.890976 652.766541,228.435165 646.978882,224.331406 
	C642.363708,221.059021 639.546570,221.634003 638.767883,228.346268 
	C637.754639,237.081100 638.040771,245.972031 638.754333,254.786697 
	C638.814453,255.529739 638.880981,256.487793 640.360718,256.691345 
	C640.747314,253.985184 641.110718,251.269958 641.525818,248.562698 
	C644.354309,230.115891 661.040161,224.313553 673.651001,225.042419 
	C678.090271,225.298996 682.560547,226.041565 686.909424,227.344421 
	C690.293030,228.358093 691.287170,229.919907 689.536011,233.153580 
	C686.681763,238.424240 683.804199,243.693512 681.236389,249.105682 
	C675.874329,260.407379 662.631348,266.828552 650.963562,264.379120 
	C644.323486,262.985107 638.893738,267.684662 638.498962,275.147369 
	C638.322205,278.488617 636.787720,282.847809 639.895691,285.065765 
	C643.175903,287.406677 646.455200,284.102325 649.440613,282.570312 
	C675.524780,269.185150 697.017212,250.295288 715.165222,227.432159 
	C716.530884,225.711639 717.662109,223.959061 717.664978,221.606613 
	C717.676636,211.920746 716.843933,202.312668 715.001038,192.808868 
	C714.436951,189.899277 713.859558,186.934265 711.328369,184.813751 
	C710.072327,183.761536 710.395386,182.131958 710.445190,180.598846 
	C710.684631,173.225677 707.179016,169.695801 700.021423,169.338181 
	C686.106689,168.642990 677.282959,160.770721 672.196167,148.430176 
	C668.776733,140.134537 666.933533,131.223969 662.614075,123.250580 
	C661.273865,120.776772 662.145020,118.872246 664.753418,118.279251 
	C667.748535,117.598305 669.225891,115.933853 670.008911,113.047432 
	C670.718628,110.430740 672.969910,109.486969 675.516235,109.740814 
	C678.716675,110.059860 680.894714,108.886581 682.543457,106.134918 
	C683.954102,103.780617 686.338196,102.759422 689.000793,103.335007 
	C692.108398,104.006813 694.489258,103.435356 696.450684,100.792000 
	C698.523621,97.998474 701.249756,97.948959 703.926575,99.840683 
	C706.399414,101.588203 708.697266,101.320961 709.580017,98.624916 
	C711.027588,94.203880 714.175598,94.496597 717.563232,94.863556 
	C718.882812,95.006493 720.180969,95.346260 721.489380,95.593605 
	C725.791687,96.406906 728.715942,95.335442 729.035706,90.332199 
	C729.118774,89.030869 729.678589,87.754013 730.063171,86.479103 
	C731.040588,83.238312 732.713989,82.256203 735.992920,84.074280 
	C738.853027,85.660156 741.550415,88.863808 744.779968,88.197189 
	C747.864624,87.560478 748.460938,83.360733 750.476807,80.957329 
	C754.842346,75.752281 756.375366,75.780701 760.892090,81.059212 
	C763.046570,83.577034 764.022827,86.941414 766.977051,89.305336 
	C772.661438,86.165733 777.543945,80.285820 785.290161,84.271172 
	C785.504456,79.896286 781.968262,78.381584 782.235535,74.893707 
	C785.086792,73.503242 787.316589,71.859238 788.596863,67.793617 
	C789.500244,64.924873 795.483032,63.136673 799.517151,62.045246 
	C800.992371,61.646107 803.387573,64.647316 805.221191,65.993149 
	C806.625061,65.484444 806.918518,64.442146 807.081604,63.499687 
	C807.755737,59.604450 808.901917,56.641018 813.851196,58.785282 
	C814.597290,59.108532 816.075806,58.823509 816.660156,58.251980 
	C819.284424,55.685616 821.197021,56.225113 823.006531,59.148811 
	C823.644653,60.179962 824.827698,60.755665 826.066650,60.228642 
	C831.124817,58.076885 831.295715,61.301323 831.279236,64.848328 
	C831.273132,66.153725 830.888733,67.519569 831.706970,68.743896 
	C832.804016,69.451187 833.599609,68.763245 834.370483,68.134583 
	C837.580200,65.517097 840.758118,62.836952 842.496277,69.462883 
	C842.625366,69.954979 843.469666,70.617004 843.961060,70.600243 
	C848.096252,70.459213 849.905945,71.993629 848.564209,76.299004 
	C848.311707,77.109215 849.201111,77.709076 849.915894,78.206001 
	C854.724060,81.548882 854.718079,81.595947 850.572388,85.876862 
	C849.895081,86.576263 848.929626,87.075119 848.872742,88.345543 
	C849.653625,90.354828 851.675598,89.482819 853.118286,89.990616 
	C854.212402,90.375755 855.391235,90.578697 856.405334,91.106659 
	C856.864014,91.345451 857.343689,92.611458 857.257263,92.677025 
	C852.022034,96.645119 861.540710,101.126434 856.810303,105.068893 
	C855.540039,106.127548 853.969788,107.221466 854.907654,109.204552 
	C857.047913,113.730293 854.460938,114.357574 850.869629,114.365036 
	C849.431030,114.368019 847.804871,113.961258 846.793640,115.540520 
	C846.519043,116.892014 847.441528,117.729446 848.153259,118.614235 
	C850.598145,121.653679 851.862061,124.240227 846.706421,125.967842 
	C844.099060,126.841599 844.895630,130.024246 843.667114,132.253433 
	C840.455994,132.445145 836.836731,131.914795 835.101379,136.125977 
	C834.326477,138.006363 832.586975,136.872375 831.297668,136.000443 
	C829.702515,134.921783 828.864258,132.740341 826.249573,132.664536 
	C824.761169,135.216431 823.775208,137.289902 827.403931,139.419678 
	C831.242981,141.672928 834.981079,144.313095 834.495178,149.861038 
	C834.328857,151.760086 836.303284,152.100708 837.855774,151.858643 
	C844.336426,150.848145 847.554016,155.466858 849.685791,159.933884 
	C851.669250,164.089859 852.825378,169.243958 847.882263,173.094040 
	C845.628113,174.849777 846.007935,176.941818 848.285278,178.415817 
	C853.634827,181.878387 852.471741,187.155792 850.833801,191.373398 
	C849.269348,195.401871 846.929565,200.097900 841.190063,200.293396 
	C838.294739,200.392029 837.359558,201.906952 837.053406,204.748093 
	C836.050781,214.052475 823.653748,219.487305 816.246826,213.882324 
	C814.087891,212.248581 812.522827,211.980942 810.710938,214.030228 
	C809.351440,215.567825 807.679565,216.787979 805.666626,217.067917 
	C803.596375,217.355820 802.836670,218.629272 801.653503,220.153625 
	C795.718445,227.800476 789.249756,234.989792 780.350769,239.366440 
	C770.367554,244.276321 760.621094,242.941116 751.148438,237.856293 
	C743.178589,233.578140 738.650269,234.152420 732.625610,241.115341 
	C725.431335,249.430069 718.440186,257.905792 710.409241,265.463623 
	C681.167847,292.982391 646.975464,311.302704 608.182068,321.513580 
	C575.858887,330.021423 543.022278,332.871094 509.731506,332.439270 
	C493.418518,332.227631 477.072052,331.647003 460.787537,333.340485 
	C439.881927,335.514557 419.356689,339.417999 399.346680,346.071503 
	C372.933258,354.854218 349.117188,368.061188 327.992615,386.214661 
	C322.539978,390.900421 317.888123,396.345764 312.633728,401.197021 
	C310.057953,403.575226 311.063202,405.761627 312.418488,408.304626 
	C319.016724,420.685516 321.198730,433.881592 317.727386,447.477844 
	C308.350159,484.206146 269.674744,499.049469 237.616180,480.490173 
M792.522522,111.649025 
	C795.817383,108.230499 793.006165,106.360916 790.533142,104.779366 
	C788.822876,103.685608 786.851196,104.296082 785.884521,106.142487 
	C784.694946,108.414719 786.200317,109.488106 788.219727,109.932755 
	C789.709045,110.260689 791.067688,110.713913 791.408020,111.905701 
	C786.762817,112.495590 786.661438,112.742310 789.332275,117.070160 
	C791.021545,115.788330 791.743286,114.018181 792.522522,111.649025 
M295.763641,437.225433 
	C294.371490,436.831085 293.237000,436.039978 293.277435,434.509949 
	C293.323639,432.763824 294.971649,432.750885 296.183563,432.294128 
	C298.474152,431.430817 302.137848,432.030457 301.677368,427.983002 
	C301.362701,425.217224 301.021667,422.163910 298.702942,420.237701 
	C296.735107,418.602875 295.059692,421.065155 293.167755,421.268066 
	C292.335144,421.357391 291.500488,421.463562 290.738098,420.528015 
	C289.894440,416.905457 293.475616,416.338348 295.376465,414.748749 
	C292.854523,409.471954 291.061584,409.143005 288.291473,413.516052 
	C284.899689,418.870483 281.107086,423.904877 277.001648,428.710785 
	C275.439545,430.539398 274.484467,432.458832 274.201721,434.928131 
	C273.742767,438.936218 271.601776,441.746399 267.300659,442.262238 
	C263.220734,442.751587 260.064667,441.388123 258.491364,437.366730 
	C256.907288,433.317749 258.525208,430.214752 261.697357,427.780640 
	C263.307434,426.545135 264.840759,425.539825 264.986694,423.160156 
	C265.458588,415.467041 264.780670,407.908722 262.897034,400.441956 
	C262.494629,398.846863 261.461304,398.275391 259.963043,398.383484 
	C257.109497,398.589447 254.384827,399.342163 251.835373,400.627167 
	C250.459290,401.320740 250.146072,402.441071 250.603012,403.984283 
	C251.178696,405.928619 254.340546,408.496674 250.854919,409.789246 
	C247.839294,410.907562 248.173218,406.726624 246.665482,405.211151 
	C246.445084,404.989685 246.110779,404.881531 245.452927,404.506287 
	C241.147324,406.847778 237.926422,410.352173 235.549240,415.052643 
	C237.970184,416.490936 242.457550,417.048767 240.969009,419.981323 
	C238.754166,424.344788 236.308380,418.483917 233.603851,418.768311 
	C231.497894,421.400726 231.162201,424.595856 230.448578,427.641876 
	C229.680862,430.918732 230.608932,432.889587 234.400879,432.613251 
	C236.167511,432.484467 237.953461,432.712433 238.045700,434.969574 
	C238.127808,436.978729 236.360321,437.103546 234.898788,437.464172 
	C230.807709,438.473480 229.638428,441.018890 230.820679,444.987427 
	C231.854385,448.457336 233.080353,450.944153 237.351990,448.462067 
	C238.892563,447.566864 240.854980,448.116486 241.684753,449.772705 
	C242.545380,451.490540 240.890396,452.398132 239.727936,453.330566 
	C238.715836,454.142395 237.299576,454.512421 236.724045,456.264587 
	C238.591904,460.406128 241.530212,463.648682 246.254044,465.607239 
	C246.886795,464.086029 247.343323,463.038910 247.759918,461.976135 
	C248.564758,459.922791 249.809723,458.194916 252.207397,459.319183 
	C254.503632,460.395844 252.917847,462.156036 252.329971,463.586609 
	C251.573837,465.426666 250.265869,467.338959 252.484695,468.953064 
	C255.038834,470.811157 257.985901,471.556366 260.968140,470.237244 
	C263.594147,469.075684 262.878845,466.619812 262.424103,464.539398 
	C261.968109,462.453400 260.583282,460.077423 264.010254,459.462158 
	C266.885620,458.945892 268.752563,460.566925 269.666870,463.237366 
	C272.049744,470.197113 274.628540,470.807892 280.226318,465.595734 
	C279.670288,464.438873 279.040985,463.272583 278.539490,462.053650 
	C277.729980,460.086121 277.942200,458.355774 280.235870,457.651978 
	C282.656799,456.909180 282.823853,458.860352 283.389282,460.443512 
	C283.979279,462.095490 283.892059,464.123505 285.663300,465.200378 
	C292.937836,462.048431 294.978607,456.751465 290.680023,452.283447 
	C289.572784,451.132477 287.555176,450.062042 289.062653,448.252563 
	C290.324280,446.738190 292.164520,447.681274 293.613892,448.549561 
	C295.158203,449.474670 296.895996,451.380798 298.485413,450.096436 
	C301.376770,447.760071 301.773041,444.007477 301.761932,440.546478 
	C301.751343,437.254059 298.871033,437.505035 295.763641,437.225433 
M805.973633,163.736908 
	C810.039307,159.202057 809.173279,148.228104 804.395630,144.363693 
	C803.794861,143.877777 802.923523,143.397491 802.207092,143.437881 
	C798.134583,143.667419 794.199707,144.856750 792.086487,148.472672 
	C790.109680,151.855225 792.719604,154.811264 794.574768,157.460236 
	C795.984863,159.473633 797.924072,161.116348 799.626709,162.925140 
	C801.289185,164.691223 803.199158,165.241928 805.973633,163.736908 
M790.129456,175.701843 
	C795.313660,176.147018 794.799316,170.156586 798.963989,169.163269 
	C795.338196,164.577454 791.712891,161.504013 787.112488,159.792404 
	C784.791016,158.928665 782.555420,158.507858 780.445984,161.030106 
	C775.350037,167.123108 776.675903,174.215744 785.409668,175.291824 
	C786.721313,175.453445 788.041077,175.549149 790.129456,175.701843 
M781.673645,208.383499 
	C789.111755,210.113190 789.791016,209.541260 788.465515,202.397903 
	C784.661255,203.014206 780.905762,203.185043 777.827393,200.106613 
	C776.505127,198.784409 774.999573,199.682327 773.668030,200.338226 
	C763.278442,205.455826 753.963867,212.043411 746.158508,220.656052 
	C744.391602,222.605591 742.924866,224.726730 743.735779,228.967422 
	C752.318909,213.812500 763.676208,205.472733 781.673645,208.383499 
M627.249146,213.462234 
	C627.104736,216.649353 627.676575,219.731796 628.795959,222.692139 
	C629.317139,224.070145 629.987488,225.539459 631.769226,225.678818 
	C633.819519,225.839172 634.759888,224.337189 635.324158,222.770264 
	C637.459595,216.840775 637.429382,210.780609 635.979980,204.715805 
	C635.600159,203.126221 635.060181,201.298645 632.876953,201.477768 
	C631.007080,201.631180 629.332642,202.408096 628.513855,204.293182 
	C627.366455,206.934662 627.202820,209.739319 627.249146,213.462234 
M627.269653,158.554825 
	C627.274780,161.368927 627.327026,164.143890 628.118591,166.916901 
	C628.781250,169.237930 630.162537,169.358292 632.192566,169.438400 
	C634.199097,169.517563 635.377686,169.087479 635.855225,167.105118 
	C637.447266,160.495789 637.462219,153.964478 634.559875,147.689651 
	C633.089722,144.511185 631.200684,144.871017 629.559265,147.616776 
	C627.717712,150.697311 627.273254,154.139572 627.269653,158.554825 
M614.084412,182.815857 
	C606.007874,180.439651 598.131836,179.719086 590.769714,184.838882 
	C591.158508,185.915268 591.183899,186.309494 591.393738,186.518448 
	C595.566467,190.673309 609.303589,191.882706 613.990173,188.417038 
	C615.874573,187.023544 615.927124,185.130753 614.084412,182.815857 
M646.866699,178.302933 
	C653.978455,177.187958 659.186768,173.015640 663.563171,167.665955 
	C664.755493,166.208527 666.312622,164.265869 664.779480,162.338303 
	C663.445740,160.661285 661.404175,161.559814 659.697815,162.177567 
	C654.307617,164.128845 649.776917,167.313446 645.997986,171.641129 
	C643.986023,173.945190 643.874939,175.986694 646.866699,178.302933 
M672.054993,186.946426 
	C673.059570,184.813126 671.578613,183.691238 670.076721,183.085587 
	C663.705811,180.516434 657.196228,180.310974 650.657593,182.515656 
	C649.295227,182.975006 648.408875,183.889084 648.345520,185.420532 
	C648.270691,187.229141 649.375122,188.242233 650.900269,188.649292 
	C657.915466,190.521652 664.895752,191.221832 672.054993,186.946426 
M609.112488,164.344894 
	C607.299011,163.542542 605.497314,162.711838 603.668457,161.946335 
	C602.050049,161.268921 600.290955,161.025925 599.063843,162.467163 
	C597.714844,164.051529 598.896179,165.610016 599.768188,166.989944 
	C602.430725,171.203262 606.531860,173.677032 610.750061,176.044510 
	C614.333801,178.055893 617.260498,178.086594 619.324890,173.722641 
	C617.053162,169.774490 613.456360,167.185379 609.112488,164.344894 
M600.651917,202.186432 
	C599.463135,203.898407 597.329712,205.628830 599.146301,207.808853 
	C600.646484,209.609192 602.843140,208.486938 604.704102,207.844620 
	C609.486267,206.194000 613.628296,203.509354 617.037903,199.786865 
	C618.420654,198.277191 620.305237,196.814377 618.329102,194.279846 
	C616.614990,192.081360 614.834229,192.992294 613.023926,193.758408 
	C608.572632,195.642151 604.400330,197.973236 600.651917,202.186432 
M652.204712,204.390045 
	C656.242065,206.569427 660.176331,209.255920 665.151428,207.292175 
	C664.244568,200.813751 656.062622,194.351044 647.349304,193.234344 
	C647.550476,195.089951 645.038391,195.343277 645.034729,197.419647 
	C646.566040,200.178940 649.000244,202.161514 652.204712,204.390045 
M618.008850,205.619690 
	C613.796631,208.310181 611.354614,212.102615 611.268372,217.139099 
	C611.217224,220.127380 612.786987,221.267014 615.380371,219.408234 
	C619.622070,216.367996 622.377136,212.309708 622.544800,206.906799 
	C622.659668,203.206879 621.197693,202.676300 618.008850,205.619690 
M649.367065,208.278503 
	C647.175232,206.949402 645.701111,204.505371 642.742554,203.830292 
	C640.391907,207.646164 641.864197,211.078033 643.645508,214.119904 
	C645.260376,216.877777 647.682983,220.922485 651.080444,219.212738 
	C654.823120,217.329285 651.984070,213.401413 650.987915,210.410431 
	C650.788269,209.811081 650.255798,209.322617 649.367065,208.278503 
M615.553162,162.859222 
	C617.423950,164.042374 618.727173,166.276764 621.578308,166.094360 
	C623.398621,163.356094 622.391968,160.585175 621.237732,158.144669 
	C619.669312,154.828049 617.269714,152.034393 613.646057,150.715652 
	C612.521729,150.306473 611.626587,151.050690 611.481873,152.139664 
	C610.953796,156.114807 611.818848,159.671204 615.553162,162.859222 
M822.749878,149.312180 
	C822.316040,147.039795 823.329529,144.030930 819.623779,143.461792 
	C815.739563,142.865250 815.454346,145.999954 814.536255,148.363968 
	C813.387573,151.322067 812.711792,154.372589 813.940369,157.907715 
	C816.430054,155.981827 817.485901,157.232178 817.681152,161.200897 
	C819.591614,156.403107 821.997375,153.599762 822.749878,149.312180 
M645.516357,154.114716 
	C642.395447,157.616913 640.736389,161.369141 643.162537,166.374146 
	C647.359802,163.943375 651.149231,162.018250 652.054565,157.113800 
	C652.450073,154.971436 653.499146,152.506729 651.370056,151.174500 
	C649.018799,149.703156 647.632080,152.340714 645.516357,154.114716 
M788.554993,184.942993 
	C788.118103,182.575790 786.550049,182.009445 784.548767,182.740631 
	C782.987427,183.311096 782.394592,184.778809 782.607544,186.378662 
	C782.800659,187.829483 783.751099,188.776642 785.259521,188.863373 
	C787.516174,188.993134 788.627747,187.858475 788.554993,184.942993 
z"/>
<path fill="#000000" opacity="1.000000" stroke="none" 
	d="
M606.707214,406.721985 
	C608.063049,404.395020 609.229553,402.379822 610.385193,400.358398 
	C612.529236,396.608215 616.242249,397.471100 619.342346,397.834137 
	C622.425720,398.195221 621.256592,401.275970 621.270264,403.204926 
	C621.369019,417.183441 621.222290,431.164124 621.383972,445.141479 
	C621.428345,448.984863 620.211975,450.461670 616.247742,450.439392 
	C612.292480,450.417145 610.378357,449.315582 610.607300,445.033691 
	C610.864441,440.223907 610.716919,435.388519 610.630859,430.566315 
	C610.596680,428.650696 611.274597,426.555389 609.663635,424.857697 
	C607.152832,424.228821 606.511047,426.299866 605.634888,427.748932 
	C602.967651,432.160461 600.413757,436.641296 597.857788,441.119141 
	C595.276794,445.640961 591.689026,445.833954 588.801208,441.378082 
	C585.910400,436.917694 583.305664,432.272827 580.502197,427.754303 
	C579.569458,426.251007 579.007874,424.367371 577.001892,423.684753 
	C574.620056,424.557495 575.276367,426.656158 575.248901,428.337891 
	C575.150879,434.327301 575.186707,440.318878 575.167419,446.309631 
	C575.152344,450.987213 571.759277,450.275330 568.791748,450.354279 
	C565.801575,450.433838 564.150513,449.495911 564.209106,446.076050 
	C564.451355,431.944214 564.475830,417.808685 564.712341,403.676727 
	C564.746948,401.607147 563.421692,398.447571 566.847473,397.929138 
	C570.169128,397.426453 573.719788,396.784180 576.003479,400.849396 
	C580.072693,408.092987 584.430054,415.179016 588.808411,422.243256 
	C592.493103,428.188324 593.979553,428.081329 597.555542,422.017365 
	C600.511658,417.004395 603.524963,412.025146 606.707214,406.721985 
z"/>
<path fill="#000000" opacity="1.000000" stroke="none" 
	d="
M346.005981,408.072815 
	C346.038666,397.677795 346.038666,397.677063 356.117401,397.684845 
	C362.112061,397.689484 368.108185,397.613953 374.101074,397.719757 
	C388.162415,397.968048 393.775848,408.802704 388.194458,418.758179 
	C386.860718,421.137146 387.520172,423.144135 388.924500,425.246613 
	C390.774017,428.015656 392.320984,430.878479 392.380951,434.437195 
	C392.517334,442.529633 389.095367,447.480774 381.148560,449.189331 
	C370.623444,451.452179 359.914459,450.149536 349.285034,450.150909 
	C345.590729,450.151398 346.062408,446.917969 346.047699,444.528656 
	C345.973999,432.540039 346.005951,420.550812 346.005981,408.072815 
M358.522491,428.775726 
	C356.658875,430.531372 357.520813,432.830078 357.318359,434.909271 
	C356.919464,439.006073 358.743225,440.677917 362.886292,440.343018 
	C366.688019,440.035706 370.524292,440.176025 374.343414,440.057861 
	C377.861816,439.948975 380.598175,438.757141 380.814697,434.694946 
	C381.040619,430.456970 378.390198,428.591461 374.700226,428.317780 
	C369.579041,427.937927 364.420807,427.583527 358.522491,428.775726 
M377.223541,415.945160 
	C379.434448,411.442780 378.288391,407.933441 373.898560,407.403687 
	C369.505463,406.873566 365.000305,407.106903 360.552521,407.254730 
	C357.680908,407.350159 357.249664,409.618866 357.354706,411.911804 
	C357.453827,414.075500 356.432343,417.271667 359.701477,417.574219 
	C365.362152,418.098114 371.185333,419.293762 377.223541,415.945160 
z"/>
<path fill="#000000" opacity="1.000000" stroke="none" 
	d="
M443.862061,437.961304 
	C435.972900,423.959106 440.792267,406.571869 454.146576,399.872223 
	C468.280792,392.781342 486.617920,398.103760 492.615692,411.038025 
	C498.827271,424.433380 494.425201,440.205475 482.603943,446.908905 
	C468.532166,454.888580 452.815796,451.373077 443.862061,437.961304 
M480.002686,412.550934 
	C474.719025,407.321198 468.678864,404.988617 461.455963,408.094696 
	C454.803375,410.955566 451.106171,417.103516 451.354004,424.423706 
	C451.589569,431.381317 455.870911,437.551453 462.071503,439.869324 
	C468.337952,442.211853 476.281952,439.932068 480.510498,434.577759 
	C484.891663,429.030273 484.877228,419.746918 480.002686,412.550934 
z"/>
<path fill="#000000" opacity="1.000000" stroke="none" 
	d="
M547.616455,403.332886 
	C556.797668,412.430939 558.899658,426.274597 552.994812,437.092285 
	C547.112366,447.868896 534.518860,453.264496 521.918762,450.406586 
	C509.847107,447.668518 501.000000,437.320831 500.896545,424.610107 
	C500.815033,414.601959 504.616791,405.860779 513.656067,400.722534 
	C523.416748,395.174286 533.610413,395.140839 543.602295,400.614410 
	C544.908325,401.329865 546.090515,402.271393 547.616455,403.332886 
M516.623352,412.152130 
	C515.112854,413.957123 513.874573,415.933777 513.151611,418.177277 
	C510.958008,424.984711 512.368835,431.184753 517.298340,436.159302 
	C521.866150,440.768799 527.738708,441.841125 533.946228,439.946136 
	C540.090942,438.070343 544.129639,432.662262 544.751709,426.340698 
	C545.537903,418.350586 542.745605,412.023224 535.543335,408.530457 
	C528.989441,405.352142 522.565369,406.426666 516.623352,412.152130 
z"/>
<path fill="#000000" opacity="1.000000" stroke="none" 
	d="
M683.602905,413.683289 
	C685.100708,410.295654 686.479187,407.271729 687.836426,404.238220 
	C691.136963,396.861450 691.767578,396.570435 699.672180,397.482941 
	C701.744812,397.722229 702.465820,399.003174 703.158142,400.540344 
	C709.910522,415.533203 716.653076,430.530518 723.407959,445.522247 
	C724.787720,448.584381 724.100708,450.110382 720.478821,450.392426 
	C715.676147,450.766418 711.934265,449.961182 710.715820,444.498871 
	C709.892517,440.807861 707.027039,439.504578 703.642700,439.364838 
	C698.330078,439.145447 693.007019,439.193329 687.689819,439.067932 
	C683.469299,438.968384 682.434082,442.229919 681.608093,445.205536 
	C680.327637,449.818359 677.379578,451.052826 673.039001,450.597595 
	C668.300903,450.100616 667.899353,449.419952 669.833618,445.062103 
	C674.415894,434.738037 678.931458,424.384369 683.602905,413.683289 
M700.256409,428.393127 
	C702.288269,425.763428 700.194214,415.941132 697.279419,414.550323 
	C695.837952,413.862518 694.680847,414.360443 693.956726,415.699463 
	C693.332397,416.853882 692.799072,418.067780 692.334412,419.296570 
	C688.838806,428.541290 689.529541,429.429749 700.256409,428.393127 
z"/>
<path fill="#000000" opacity="1.000000" stroke="none" 
	d="
M746.863281,417.998840 
	C750.250061,419.067444 753.259766,420.017700 756.273987,420.953369 
	C764.558716,423.525085 767.453735,427.244751 767.394775,435.256256 
	C767.342896,442.299744 762.737671,448.011963 755.592346,450.065979 
	C746.597839,452.651642 738.105469,450.855164 729.959656,446.975464 
	C725.233337,444.724426 725.499023,441.507507 730.660095,435.674530 
	C735.502075,437.979950 740.169067,441.091400 745.907898,440.954773 
	C747.566223,440.915314 749.239990,440.922424 750.876038,440.691193 
	C753.368530,440.338898 755.320862,438.924835 756.058472,436.550659 
	C756.890991,433.871246 754.474731,432.676727 752.804565,431.527252 
	C748.609985,428.640350 743.352173,428.566284 738.769226,426.591309 
	C734.103149,424.580475 729.537231,422.601227 727.826843,417.224579 
	C725.486023,409.866028 729.054443,402.110687 736.695251,398.904663 
	C744.734802,395.531311 752.993103,396.023224 761.001831,399.087585 
	C765.557312,400.830597 766.024719,403.004486 763.860474,407.297180 
	C762.544373,409.907410 760.936523,410.553558 758.269165,409.103088 
	C755.185425,407.426178 751.847351,406.348846 748.277039,406.319855 
	C744.069824,406.285706 739.549255,406.889923 738.946716,411.773865 
	C738.352844,416.587738 742.970642,417.018738 746.863281,417.998840 
z"/>
<path fill="#000000" opacity="1.000000" stroke="none" 
	d="
M649.012573,397.685181 
	C654.675354,397.682495 659.846802,397.829468 665.004333,397.626099 
	C668.591675,397.484680 670.256409,398.741638 670.189758,402.461945 
	C670.123291,406.173645 668.302856,407.384430 664.820618,407.268646 
	C659.826904,407.102692 654.822449,407.277222 649.826904,407.144379 
	C645.468018,407.028442 643.980835,409.250458 643.936340,413.315063 
	C643.890686,417.490631 644.701355,420.676849 649.768433,420.668671 
	C653.600830,420.662506 657.437744,420.803345 661.264221,420.657257 
	C664.860596,420.519958 667.378906,420.953888 667.276794,425.622772 
	C667.182373,429.940704 664.914917,430.484070 661.478088,430.338776 
	C657.818542,430.184052 654.138245,430.457031 650.484497,430.243622 
	C645.668701,429.962311 643.801636,432.227997 644.000061,436.815277 
	C644.107910,439.308685 643.818420,441.823181 643.987244,444.309204 
	C644.256836,448.277527 643.351379,450.523285 638.585754,450.444885 
	C634.045471,450.370239 631.879700,449.229645 631.966309,444.229828 
	C632.208496,430.238495 632.176208,416.239807 632.033386,402.246216 
	C631.994690,398.458984 633.293884,397.250336 637.025208,397.591248 
	C640.826355,397.938538 644.682922,397.679108 649.012573,397.685181 
z"/>
<path fill="#000000" opacity="1.000000" stroke="none" 
	d="
M584.881958,368.047180 
	C565.871582,373.063599 549.252686,363.071442 544.467163,344.276398 
	C543.616394,340.935211 544.494934,339.499695 547.805908,338.538269 
	C567.477356,332.826324 583.596069,341.249634 590.449158,360.730652 
	C592.355530,366.149719 589.110413,367.054169 584.881958,368.047180 
z"/>
<path fill="#000000" opacity="1.000000" stroke="none" 
	d="
M679.211182,301.695129 
	C691.743042,300.938202 699.985474,307.710602 707.526550,315.874451 
	C709.387878,317.889404 709.103638,319.513611 707.093628,321.371124 
	C692.584045,334.780518 675.136780,334.465271 661.385803,320.453613 
	C655.959290,314.924194 656.148804,312.855408 662.288818,308.297546 
	C667.213196,304.642120 672.614258,302.273560 679.211182,301.695129 
z"/>
<path fill="#000000" opacity="1.000000" stroke="none" 
	d="
M436.042358,343.665039 
	C452.404541,342.777771 462.003235,355.953705 466.881256,366.389862 
	C467.906494,368.583313 466.260132,369.393555 464.710022,370.093384 
	C444.393463,379.265594 427.389252,373.252838 418.549835,354.092651 
	C417.091736,350.932068 417.129822,348.734497 420.723419,347.409973 
	C425.544159,345.633179 430.229156,343.340057 436.042358,343.665039 
z"/>
<path fill="#000000" opacity="1.000000" stroke="none" 
	d="
M790.086426,450.334351 
	C786.059570,450.465118 785.678589,448.167114 785.688904,445.387177 
	C785.727112,435.067505 785.728455,424.747375 785.675842,414.427795 
	C785.643555,408.097168 784.751892,407.249390 778.441040,407.117065 
	C776.943420,407.085663 775.442566,407.032867 773.947510,407.095093 
	C770.698364,407.230316 768.864502,406.004425 769.064453,402.466431 
	C769.237488,399.404480 770.190979,397.588135 773.821289,397.638489 
	C785.470642,397.800201 797.124329,397.756592 808.775024,397.648956 
	C811.922852,397.619904 813.349915,398.708618 813.313232,401.970001 
	C813.278809,405.027588 812.720154,407.320435 808.984802,407.119019 
	C808.818970,407.110046 808.651855,407.129944 808.485596,407.124939 
	C796.236816,406.756836 797.193420,406.643005 797.156250,419.052643 
	C797.131287,427.375061 796.927856,435.706573 797.248718,444.016846 
	C797.446289,449.133514 795.505798,451.110474 790.086426,450.334351 
z"/>
<path fill="#000000" opacity="1.000000" stroke="none" 
	d="
M420.015656,440.380493 
	C424.584869,440.210022 428.736694,440.065887 432.889709,439.980469 
	C436.728058,439.901550 437.424713,442.181458 437.423065,445.516785 
	C437.421356,448.929443 436.154510,450.343933 432.743225,450.313110 
	C423.588593,450.230347 414.431458,450.216431 405.277740,450.347137 
	C401.620148,450.399353 400.099976,448.742249 400.141602,445.265289 
	C400.314667,430.813110 400.513702,416.361053 400.623108,401.908356 
	C400.644562,399.074097 401.523499,397.473602 404.658081,397.696014 
	C406.621979,397.835388 408.603851,397.721924 410.423950,397.721924 
	C412.038971,400.127777 411.415863,402.488525 411.412079,404.772369 
	C411.397095,413.761383 411.376526,422.750366 411.371338,431.739380 
	C411.367065,439.155090 411.840332,439.646240 420.015656,440.380493 
z"/>
<path fill="#000000" opacity="1.000000" stroke="none" 
	d="
M432.379150,473.468689 
	C432.664886,467.147278 436.605652,462.974335 442.304901,464.343079 
	C449.970032,466.183990 457.415466,463.437927 464.915283,464.625061 
	C465.560181,464.727142 466.242371,464.584351 466.907562,464.569305 
	C468.530426,464.532623 470.016083,464.826965 470.138824,466.812836 
	C470.240234,468.453613 469.146606,469.207336 467.641541,469.312256 
	C463.853851,469.576233 463.146362,472.063324 463.183533,475.225952 
	C463.220612,478.381866 463.289612,481.551361 463.040833,484.690826 
	C462.915985,486.266541 462.482147,488.207001 460.207703,488.116028 
	C457.959229,488.026062 457.720917,486.252319 457.668793,484.521362 
	C457.573639,481.362946 457.609222,478.199310 457.459229,475.044098 
	C457.300781,471.710602 455.556366,469.601074 452.115448,469.845673 
	C448.272339,470.118927 444.124359,469.264557 440.328339,471.704132 
	C442.178253,474.292419 444.886414,474.073425 446.672791,475.564026 
	C448.991730,477.498962 450.724396,479.611725 449.930847,482.802795 
	C449.171356,485.856873 446.989166,487.655365 443.977661,488.150391 
	C441.190704,488.608551 438.325348,488.667267 435.570679,487.800293 
	C433.403137,487.118042 431.450287,485.899200 429.097565,487.804138 
	C427.865356,488.801788 426.435333,487.712891 425.228638,486.555817 
	C420.500763,482.022156 416.552460,482.083160 412.175598,486.686676 
	C411.022308,487.899628 409.818817,488.766754 408.293762,487.873199 
	C406.794220,486.994659 407.470276,485.458344 407.940582,484.280640 
	C410.160248,478.722504 412.470215,473.200256 414.766235,467.672821 
	C415.526367,465.842834 416.731354,464.687775 418.912994,464.723175 
	C421.131531,464.759216 422.157623,466.125427 422.929138,467.885559 
	C425.123260,472.891205 427.305603,477.901978 429.800995,483.617096 
	C434.157501,479.354950 439.345154,486.436615 443.908722,481.595947 
	C440.348358,478.128723 434.272614,479.056396 432.379150,473.468689 
z"/>
<path fill="#000000" opacity="1.000000" stroke="none" 
	d="
M714.659790,221.318939 
	C712.086365,228.569977 711.498413,228.896957 705.124207,225.221939 
	C688.573181,215.679550 689.464355,202.795975 694.616760,189.353516 
	C695.613098,186.754044 697.436829,186.648392 699.856445,187.785889 
	C713.795898,194.339111 719.265198,206.363205 714.659790,221.318939 
z"/>
<path fill="#000000" opacity="1.000000" stroke="none" 
	d="
M579.170654,480.134399 
	C577.912354,477.347656 576.564392,477.042206 575.381226,479.656158 
	C574.425537,481.767395 574.051880,484.150879 573.030884,486.221741 
	C571.488037,489.351166 567.812866,489.538422 566.526245,486.349426 
	C564.041504,480.190643 562.119751,473.802277 560.044067,467.482971 
	C559.655212,466.299072 559.902466,465.118805 561.437500,464.793243 
	C563.246948,464.409424 564.601868,464.740234 565.487000,466.677399 
	C566.808289,469.568848 566.377808,473.346344 569.593384,475.402496 
	C572.213867,474.138275 572.231445,471.583771 573.105469,469.511078 
	C573.901917,467.622345 573.889160,464.989807 576.831116,464.840363 
	C579.821045,464.688568 579.927185,467.293091 580.888306,469.138245 
	C581.992065,471.257355 581.792358,474.114899 584.447632,475.588287 
	C587.206543,473.829865 587.250793,470.849243 588.032349,468.220184 
	C588.921326,465.229553 590.602356,463.597534 594.445312,465.259949 
	C592.848083,472.689423 590.447266,479.913177 587.291992,486.764038 
	C586.060669,489.437500 582.937683,488.901489 581.385376,486.061584 
	C580.439819,484.331665 579.992676,482.329285 579.170654,480.134399 
z"/>
<path fill="#000000" opacity="1.000000" stroke="none" 
	d="
M725.716736,479.052490 
	C727.995911,483.261414 731.091431,484.369385 735.078125,482.438263 
	C737.017212,481.499023 739.005127,480.484344 739.913208,483.338013 
	C740.710266,485.842896 738.633118,486.839539 736.736450,487.624725 
	C731.882812,489.634094 725.702026,488.385681 722.462585,484.683868 
	C719.072388,480.809723 718.423523,476.254822 720.208130,471.610962 
	C721.964050,467.041595 728.701965,462.753479 733.260071,464.262390 
	C739.008179,466.165253 744.370544,464.131348 749.886292,464.419159 
	C752.709961,464.566498 755.538940,464.610504 758.363647,464.741211 
	C759.645264,464.800507 760.630188,465.349854 760.801880,466.754120 
	C760.969543,468.126129 760.331909,469.129425 758.965698,469.238861 
	C753.132874,469.706177 753.455444,473.992981 753.434509,478.039856 
	C753.421753,480.508423 754.374634,482.942688 753.493347,485.460144 
	C753.040222,486.754425 752.871582,488.077850 751.104431,488.145721 
	C749.116821,488.222076 748.434814,486.929932 748.344666,485.316559 
	C748.158813,481.994049 748.159302,478.661591 748.042847,475.334625 
	C747.846985,469.738892 745.588623,468.128052 740.404419,470.076752 
	C738.809631,470.676239 737.504089,471.173279 735.687256,470.579529 
	C728.455627,468.216156 724.920227,471.136169 725.716736,479.052490 
z"/>
<path fill="#000000" opacity="1.000000" stroke="none" 
	d="
M521.092773,483.161530 
	C520.058350,483.657898 519.104919,483.974854 518.798401,484.605988 
	C517.919556,486.415680 517.373657,488.705139 514.691895,487.835785 
	C512.505127,487.126923 512.801697,484.905853 512.776123,483.133148 
	C512.708862,478.475464 512.880371,473.812714 512.743347,469.158264 
	C512.652710,466.081604 513.741150,464.490875 516.965637,464.417419 
	C520.634766,464.333832 524.291504,464.195770 527.706238,465.834473 
	C531.534668,467.671783 533.353760,470.965057 532.056030,474.845520 
	C530.641968,479.073669 529.486511,483.012329 532.114746,486.973083 
	C529.486389,489.044891 527.742859,488.255951 526.161987,486.385986 
	C524.889587,484.880890 523.862671,483.018616 521.092773,483.161530 
M525.550232,474.123718 
	C525.763245,471.611023 524.350220,470.515320 522.085876,470.315613 
	C520.625366,470.186798 519.559631,470.905853 519.037170,472.305023 
	C518.506287,473.726562 518.888794,474.921234 520.150696,475.726440 
	C522.129211,476.988922 523.876526,476.695343 525.550232,474.123718 
z"/>
<path fill="#000000" opacity="1.000000" stroke="none" 
	d="
M640.877441,465.563660 
	C647.455383,462.819244 653.131104,464.287048 656.616394,469.347321 
	C659.813232,473.988831 659.484741,480.577606 655.852417,484.670441 
	C652.384949,488.577545 645.016235,489.639038 640.148315,486.932709 
	C635.089478,484.120239 632.874390,478.469879 634.554016,472.820007 
	C635.521118,469.566986 637.794250,467.473358 640.877441,465.563660 
M649.213379,470.336609 
	C645.522095,468.696136 642.780884,470.145813 640.665894,473.137085 
	C638.956421,475.554901 638.940063,478.009460 640.927246,480.409210 
	C643.919312,484.022552 647.987427,484.456421 651.272949,481.419769 
	C654.814941,478.146088 654.366333,474.661713 649.213379,470.336609 
z"/>
<path fill="#000000" opacity="1.000000" stroke="none" 
	d="
M551.561768,465.132202 
	C557.946472,468.994812 560.096069,473.133453 558.911987,478.802826 
	C557.843140,483.920746 554.035583,487.626892 549.206970,488.249176 
	C542.943665,489.056396 538.225769,486.955719 535.850708,481.805725 
	C533.779541,477.314758 533.586609,472.743195 537.282349,468.814850 
	C541.116882,464.739136 545.675781,462.996063 551.561768,465.132202 
M552.824097,478.594025 
	C553.949219,474.106110 552.320923,470.926788 547.909607,469.735413 
	C544.173950,468.726440 541.777954,471.184387 540.619141,474.298340 
	C539.304810,477.830261 540.422485,481.046356 544.075012,482.574005 
	C547.761719,484.115967 550.945068,483.394775 552.824097,478.594025 
z"/>
<path fill="#000000" opacity="1.000000" stroke="none" 
	d="
M709.427490,473.086151 
	C710.699280,473.434174 711.676697,473.638000 712.664368,473.727173 
	C714.365479,473.880707 715.589966,474.604401 715.637573,476.431824 
	C715.690613,478.466248 714.049561,478.552734 712.579956,478.980988 
	C710.484741,479.591522 706.414734,477.738861 706.783691,481.406128 
	C707.074829,484.299408 710.873413,483.057800 713.243652,483.083405 
	C715.168152,483.104187 717.121948,483.164490 717.106201,485.774078 
	C717.092102,488.102020 715.276794,488.196533 713.551147,488.255768 
	C713.218689,488.267181 712.885620,488.274872 712.553101,488.269135 
	C697.985535,488.018372 699.708313,490.342224 699.794373,475.713928 
	C699.862427,464.158783 699.912659,464.161743 711.301880,464.598053 
	C712.131958,464.629852 712.966553,464.611206 713.796448,464.566162 
	C715.485535,464.474426 716.874695,464.889496 716.943420,466.860687 
	C717.012817,468.849365 715.558228,469.110779 713.952637,469.413910 
	C711.884644,469.804321 708.440979,468.581757 709.427490,473.086151 
z"/>
<path fill="#000000" opacity="1.000000" stroke="none" 
	d="
M492.736450,466.552734 
	C497.499084,463.682983 501.983856,462.794250 506.540039,466.092377 
	C507.819550,467.018585 508.960938,468.084991 508.013641,469.800446 
	C507.091034,471.471191 505.628845,471.371582 504.159271,470.538300 
	C500.941833,468.713898 498.133972,469.458923 495.509674,471.784912 
	C493.245270,473.791840 492.698090,476.274048 493.686096,479.002106 
	C494.618225,481.575745 496.530609,482.930908 499.401245,482.954102 
	C502.635376,482.980194 503.771515,481.252563 503.866669,478.298248 
	C503.908417,477.002350 504.736053,476.159363 506.099152,476.071503 
	C507.666077,475.970551 508.490265,476.874176 509.011902,478.256592 
	C510.700378,482.731232 508.753876,486.619110 504.134247,487.915863 
	C497.863586,489.676086 492.000183,487.510223 488.980652,482.318390 
	C486.079224,477.329620 487.297699,471.838898 492.736450,466.552734 
z"/>
<path fill="#000000" opacity="1.000000" stroke="none" 
	d="
M618.667603,472.741852 
	C616.374207,476.309265 617.453369,479.181824 619.916443,481.547028 
	C622.389099,483.921509 625.272156,483.873199 628.140686,482.008789 
	C629.674438,481.011932 631.233643,480.443665 632.250854,482.642151 
	C633.116699,484.513519 632.212036,485.835999 630.689087,486.858978 
	C626.350342,489.773438 618.252502,488.569427 614.613403,484.481415 
	C610.514160,479.876526 610.618530,472.683197 614.851013,468.097687 
	C619.153198,463.436646 625.668518,462.684692 630.693909,466.196594 
	C632.162109,467.222626 633.452515,468.263519 632.504456,470.237518 
	C631.440125,472.453522 629.734985,471.580536 628.264404,470.824890 
	C624.687988,468.987213 621.558105,469.303589 618.667603,472.741852 
z"/>
<path fill="#000000" opacity="1.000000" stroke="none" 
	d="
M390.069550,468.331238 
	C390.280518,465.991302 391.105469,464.688416 393.174744,464.675507 
	C396.830933,464.652649 400.488098,464.649200 404.143616,464.711487 
	C405.765198,464.739136 407.189636,465.255005 407.099976,467.257874 
	C407.020142,469.040466 405.618103,469.223816 404.240417,469.327057 
	C403.743317,469.364349 403.239990,469.342041 402.746704,469.403961 
	C400.687225,469.662567 397.758453,469.207733 397.804321,472.192871 
	C397.843140,474.719513 400.475922,474.646240 402.484283,474.730377 
	C404.221252,474.803162 406.006439,474.953186 405.952423,477.292023 
	C405.904266,479.375305 404.425415,480.246094 402.576416,480.119690 
	C398.525726,479.842712 395.754822,480.903168 395.509033,485.578613 
	C395.419647,487.278961 394.241943,488.296295 392.430695,488.080872 
	C390.496277,487.850800 390.131592,486.245331 390.104309,484.752838 
	C390.007233,479.435486 390.054871,474.115509 390.069550,468.331238 
z"/>
<path fill="#000000" opacity="1.000000" stroke="none" 
	d="
M678.461304,484.501343 
	C676.384644,491.877075 670.678833,486.985748 666.717041,488.178192 
	C664.478821,488.851868 661.884277,488.249756 661.846497,484.902069 
	C661.782898,479.267639 661.775574,473.632141 661.805725,467.997406 
	C661.815796,466.112854 662.611084,464.787781 664.768066,464.836792 
	C667.132446,464.890503 667.260254,466.599823 667.280640,468.320923 
	C667.317932,471.470093 667.457397,474.628937 667.271179,477.766937 
	C667.059021,481.342133 668.425781,482.969635 672.103943,482.913788 
	C674.180298,482.882233 676.472473,482.440094 678.461304,484.501343 
z"/>
<path fill="#000000" opacity="1.000000" stroke="none" 
	d="
M681.510620,465.681458 
	C684.834534,464.068909 686.202454,465.235321 686.229248,468.352142 
	C686.256287,471.499725 686.440247,474.657471 686.251099,477.792389 
	C686.013611,481.730255 687.812317,483.250153 691.557007,483.007507 
	C692.542786,482.943604 693.547180,483.009827 694.531677,483.118713 
	C695.983337,483.279205 697.082031,483.943726 697.129211,485.572662 
	C697.175354,487.166260 696.273071,488.108826 694.732239,488.139984 
	C690.925964,488.216888 687.115479,488.233398 683.309937,488.141846 
	C681.284790,488.093109 680.290527,486.649902 680.348267,484.823578 
	C680.546448,478.554810 680.910034,472.291260 681.510620,465.681458 
z"/>
<path fill="#000000" opacity="1.000000" stroke="none" 
	d="
M742.761658,271.673828 
	C739.956299,274.538849 736.997437,275.045685 733.965637,273.151184 
	C731.527161,271.627472 730.582397,269.102417 730.993591,266.258209 
	C731.395996,263.474792 733.372925,261.985870 735.887146,261.223114 
	C738.348633,260.476379 740.566833,261.268829 742.174072,263.125366 
	C744.304993,265.586853 744.794250,268.406647 742.761658,271.673828 
z"/>
<path fill="#000000" opacity="1.000000" stroke="none" 
	d="
M451.528046,285.261841 
	C456.962524,285.547760 461.078918,290.581421 459.327820,294.223633 
	C457.792816,297.416412 454.234009,298.531860 450.955597,296.847717 
	C447.028229,294.830231 445.959412,291.809723 447.920380,288.321381 
	C448.676392,286.976501 449.723541,285.972595 451.528046,285.261841 
z"/>
<path fill="#000000" opacity="1.000000" stroke="none" 
	d="
M392.448303,368.436493 
	C394.959106,370.912781 395.646729,373.429993 393.996368,376.276794 
	C392.850800,378.252838 391.160614,379.477753 388.783173,379.450500 
	C386.040283,379.419037 384.135406,378.079132 382.935944,375.627747 
	C381.742920,373.189575 382.466461,371.089508 384.159180,369.298401 
	C386.475708,366.847198 389.173859,366.288727 392.448303,368.436493 
z"/>
<path fill="#000000" opacity="1.000000" stroke="none" 
	d="
M577.899109,288.497742 
	C574.719971,286.139191 573.319275,283.479492 575.704773,280.225983 
	C577.348145,277.984711 579.490295,276.574493 582.287903,278.687622 
	C582.012756,281.237457 577.784973,282.038025 579.697632,284.779419 
	C581.727844,287.689362 583.660828,283.537170 585.818481,284.027069 
	C585.935608,288.807404 584.941772,289.397247 577.899109,288.497742 
z"/>
<path fill="#000000" opacity="1.000000" stroke="none" 
	d="
M763.167603,482.267944 
	C765.658081,482.236115 767.133362,483.096863 766.905212,485.433685 
	C766.772644,486.791656 765.977966,487.904663 764.491089,488.255554 
	C763.031738,488.599976 761.776001,488.209961 761.158691,486.826447 
	C760.300232,484.902435 760.658997,483.269104 763.167603,482.267944 
z"/>
<path fill="#000000" opacity="1.000000" stroke="none" 
	d="
M599.112793,482.757660 
	C601.283447,485.053711 600.924194,486.857513 598.350586,487.840942 
	C596.758728,488.449219 595.343628,487.467072 595.064453,485.836517 
	C594.571899,482.961151 596.105164,482.005402 599.112793,482.757660 
z"/>
</svg>